<mxfile host="app.diagrams.net" modified="2023-11-10T14:10:41.969Z" agent="Mozilla/5.0 (Windows NT 10.0; Win64; x64) AppleWebKit/537.36 (KHTML, like Gecko) Chrome/119.0.0.0 Safari/537.36" etag="kVd9dEtlBTwahyZrM2eQ" version="22.1.0" type="device">
  <diagram name="Page-1" id="2YBvvXClWsGukQMizWep">
    <mxGraphModel dx="1110" dy="-673" grid="1" gridSize="10" guides="1" tooltips="1" connect="1" arrows="1" fold="1" page="1" pageScale="1" pageWidth="850" pageHeight="1100" math="0" shadow="0">
      <root>
        <mxCell id="0" />
        <mxCell id="1" parent="0" />
        <mxCell id="GiLnQwnksvuaZxbAcod8-1" value=":Camara" style="shape=umlLifeline;perimeter=lifelinePerimeter;whiteSpace=wrap;html=1;container=0;dropTarget=0;collapsible=0;recursiveResize=0;outlineConnect=0;portConstraint=eastwest;newEdgeStyle={&quot;edgeStyle&quot;:&quot;elbowEdgeStyle&quot;,&quot;elbow&quot;:&quot;vertical&quot;,&quot;curved&quot;:0,&quot;rounded&quot;:0};" parent="1" vertex="1">
          <mxGeometry x="59.5" y="1242" width="100" height="718" as="geometry" />
        </mxCell>
        <mxCell id="GiLnQwnksvuaZxbAcod8-2" value="C:Controlador" style="shape=umlLifeline;perimeter=lifelinePerimeter;whiteSpace=wrap;html=1;container=0;dropTarget=0;collapsible=0;recursiveResize=0;outlineConnect=0;portConstraint=eastwest;newEdgeStyle={&quot;edgeStyle&quot;:&quot;elbowEdgeStyle&quot;,&quot;elbow&quot;:&quot;vertical&quot;,&quot;curved&quot;:0,&quot;rounded&quot;:0};" parent="1" vertex="1">
          <mxGeometry x="314.5" y="1242" width="100" height="718" as="geometry" />
        </mxCell>
        <mxCell id="GiLnQwnksvuaZxbAcod8-3" value="" style="html=1;points=[];perimeter=orthogonalPerimeter;outlineConnect=0;targetShapes=umlLifeline;portConstraint=eastwest;newEdgeStyle={&quot;edgeStyle&quot;:&quot;elbowEdgeStyle&quot;,&quot;elbow&quot;:&quot;vertical&quot;,&quot;curved&quot;:0,&quot;rounded&quot;:0};" parent="GiLnQwnksvuaZxbAcod8-2" vertex="1">
          <mxGeometry x="45" y="80" width="10" height="600" as="geometry" />
        </mxCell>
        <mxCell id="GiLnQwnksvuaZxbAcod8-4" value="manda(date, time, idCam, patente, velocidad)" style="html=1;verticalAlign=bottom;endArrow=block;edgeStyle=elbowEdgeStyle;elbow=vertical;curved=0;rounded=0;" parent="1" source="GiLnQwnksvuaZxbAcod8-1" target="GiLnQwnksvuaZxbAcod8-3" edge="1">
          <mxGeometry relative="1" as="geometry">
            <mxPoint x="155.5" y="1322" as="sourcePoint" />
            <Array as="points">
              <mxPoint x="240.5" y="1322" />
            </Array>
          </mxGeometry>
        </mxCell>
        <mxCell id="GiLnQwnksvuaZxbAcod8-5" value="&amp;lt;&amp;lt;null&amp;gt;&amp;gt;" style="html=1;verticalAlign=bottom;endArrow=open;dashed=1;endSize=8;edgeStyle=elbowEdgeStyle;elbow=vertical;curved=0;rounded=0;" parent="1" target="GiLnQwnksvuaZxbAcod8-1" edge="1">
          <mxGeometry relative="1" as="geometry">
            <mxPoint x="150.5" y="1922" as="targetPoint" />
            <Array as="points">
              <mxPoint x="245.5" y="1922" />
            </Array>
            <mxPoint x="359.5" y="1922" as="sourcePoint" />
          </mxGeometry>
        </mxCell>
        <mxCell id="GiLnQwnksvuaZxbAcod8-6" value="cD&amp;lt;&amp;lt;Singleton&amp;gt;&amp;gt;: colecciÃ³nDetecciones" style="shape=umlLifeline;perimeter=lifelinePerimeter;whiteSpace=wrap;html=1;container=0;dropTarget=0;collapsible=0;recursiveResize=0;outlineConnect=0;portConstraint=eastwest;newEdgeStyle={&quot;edgeStyle&quot;:&quot;elbowEdgeStyle&quot;,&quot;elbow&quot;:&quot;vertical&quot;,&quot;curved&quot;:0,&quot;rounded&quot;:0};" parent="1" vertex="1">
          <mxGeometry x="470.5" y="1242" width="220" height="718" as="geometry" />
        </mxCell>
        <mxCell id="GiLnQwnksvuaZxbAcod8-8" value="ApiPrint:ApiPrint" style="shape=umlLifeline;perimeter=lifelinePerimeter;whiteSpace=wrap;html=1;container=0;dropTarget=0;collapsible=0;recursiveResize=0;outlineConnect=0;portConstraint=eastwest;newEdgeStyle={&quot;edgeStyle&quot;:&quot;elbowEdgeStyle&quot;,&quot;elbow&quot;:&quot;vertical&quot;,&quot;curved&quot;:0,&quot;rounded&quot;:0};" parent="1" vertex="1">
          <mxGeometry x="950.5" y="1242" width="110" height="718" as="geometry" />
        </mxCell>
        <mxCell id="GiLnQwnksvuaZxbAcod8-9" value="" style="html=1;points=[];perimeter=orthogonalPerimeter;outlineConnect=0;targetShapes=umlLifeline;portConstraint=eastwest;newEdgeStyle={&quot;edgeStyle&quot;:&quot;elbowEdgeStyle&quot;,&quot;elbow&quot;:&quot;vertical&quot;,&quot;curved&quot;:0,&quot;rounded&quot;:0};" parent="GiLnQwnksvuaZxbAcod8-8" vertex="1">
          <mxGeometry x="50" y="525" width="10" height="23" as="geometry" />
        </mxCell>
        <mxCell id="GiLnQwnksvuaZxbAcod8-10" value="enviar(patente, velocidad)" style="html=1;verticalAlign=bottom;endArrow=block;edgeStyle=elbowEdgeStyle;elbow=vertical;curved=0;rounded=0;" parent="1" target="GiLnQwnksvuaZxbAcod8-33" edge="1">
          <mxGeometry relative="1" as="geometry">
            <mxPoint x="369.5" y="1433" as="sourcePoint" />
            <Array as="points">
              <mxPoint x="459.5" y="1433" />
            </Array>
            <mxPoint x="759.5" y="1433" as="targetPoint" />
          </mxGeometry>
        </mxCell>
        <mxCell id="GiLnQwnksvuaZxbAcod8-11" value="&amp;lt;&amp;lt;data: str&amp;gt;&amp;gt;" style="html=1;verticalAlign=bottom;endArrow=open;dashed=1;endSize=8;edgeStyle=elbowEdgeStyle;elbow=vertical;curved=0;rounded=0;" parent="1" source="GiLnQwnksvuaZxbAcod8-33" edge="1">
          <mxGeometry x="0.002" relative="1" as="geometry">
            <mxPoint x="370.5" y="1454" as="targetPoint" />
            <Array as="points">
              <mxPoint x="469.5" y="1454" />
            </Array>
            <mxPoint x="580.5" y="1454" as="sourcePoint" />
            <mxPoint as="offset" />
          </mxGeometry>
        </mxCell>
        <mxCell id="GiLnQwnksvuaZxbAcod8-12" value="[velocidad &amp;gt;= 70 &amp;amp;&amp;amp; velocidad &amp;lt; 100]" style="text;html=1;align=center;verticalAlign=middle;resizable=0;points=[];autosize=1;strokeColor=none;fillColor=none;" parent="1" vertex="1">
          <mxGeometry x="363.5" y="1373" width="220" height="30" as="geometry" />
        </mxCell>
        <mxCell id="GiLnQwnksvuaZxbAcod8-13" value="send(&quot;avisos@ciudad&quot;, data)" style="html=1;verticalAlign=bottom;endArrow=block;edgeStyle=elbowEdgeStyle;elbow=vertical;curved=0;rounded=0;" parent="1" target="GiLnQwnksvuaZxbAcod8-31" edge="1">
          <mxGeometry relative="1" as="geometry">
            <mxPoint x="369.5" y="1496" as="sourcePoint" />
            <Array as="points">
              <mxPoint x="572.5" y="1496" />
            </Array>
            <mxPoint x="880.5" y="1496" as="targetPoint" />
          </mxGeometry>
        </mxCell>
        <mxCell id="GiLnQwnksvuaZxbAcod8-14" value="&amp;lt;&amp;lt;null&amp;gt;&amp;gt;" style="html=1;verticalAlign=bottom;endArrow=open;dashed=1;endSize=8;edgeStyle=elbowEdgeStyle;elbow=vertical;curved=0;rounded=0;" parent="1" source="GiLnQwnksvuaZxbAcod8-31" edge="1">
          <mxGeometry relative="1" as="geometry">
            <mxPoint x="370.5" y="1515" as="targetPoint" />
            <Array as="points">
              <mxPoint x="474.5" y="1515" />
            </Array>
            <mxPoint x="670.5" y="1513" as="sourcePoint" />
          </mxGeometry>
        </mxCell>
        <mxCell id="GiLnQwnksvuaZxbAcod8-15" value="ALT" style="shape=umlFrame;whiteSpace=wrap;html=1;pointerEvents=0;" parent="1" vertex="1">
          <mxGeometry x="300" y="1373" width="750" height="463" as="geometry" />
        </mxCell>
        <mxCell id="GiLnQwnksvuaZxbAcod8-16" value="" style="endArrow=none;dashed=1;html=1;rounded=0;entryX=1;entryY=0.494;entryDx=0;entryDy=0;entryPerimeter=0;" parent="1" target="GiLnQwnksvuaZxbAcod8-15" edge="1">
          <mxGeometry width="50" height="50" relative="1" as="geometry">
            <mxPoint x="299.5" y="1601" as="sourcePoint" />
            <mxPoint x="1030" y="1601" as="targetPoint" />
          </mxGeometry>
        </mxCell>
        <mxCell id="GiLnQwnksvuaZxbAcod8-17" value="&amp;lt;&amp;lt;null&amp;gt;&amp;gt;" style="html=1;verticalAlign=bottom;endArrow=open;dashed=1;endSize=8;edgeStyle=elbowEdgeStyle;elbow=vertical;curved=0;rounded=0;" parent="1" source="GiLnQwnksvuaZxbAcod8-18" edge="1">
          <mxGeometry relative="1" as="geometry">
            <mxPoint x="370.5" y="1566" as="targetPoint" />
            <Array as="points">
              <mxPoint x="475.5" y="1566" />
            </Array>
            <mxPoint x="804.5" y="1564" as="sourcePoint" />
          </mxGeometry>
        </mxCell>
        <mxCell id="GiLnQwnksvuaZxbAcod8-18" value="" style="html=1;points=[];perimeter=orthogonalPerimeter;outlineConnect=0;targetShapes=umlLifeline;portConstraint=eastwest;newEdgeStyle={&quot;edgeStyle&quot;:&quot;elbowEdgeStyle&quot;,&quot;elbow&quot;:&quot;vertical&quot;,&quot;curved&quot;:0,&quot;rounded&quot;:0};" parent="1" vertex="1">
          <mxGeometry x="1000.5" y="1546" width="10" height="20" as="geometry" />
        </mxCell>
        <mxCell id="GiLnQwnksvuaZxbAcod8-19" value="[velocidad &amp;gt; 100]" style="text;html=1;align=center;verticalAlign=middle;resizable=0;points=[];autosize=1;strokeColor=none;fillColor=none;" parent="1" vertex="1">
          <mxGeometry x="379.5" y="1600" width="110" height="30" as="geometry" />
        </mxCell>
        <mxCell id="GiLnQwnksvuaZxbAcod8-20" value="enviar(patente, velocidad)" style="html=1;verticalAlign=bottom;endArrow=block;edgeStyle=elbowEdgeStyle;elbow=vertical;curved=0;rounded=0;" parent="1" target="GiLnQwnksvuaZxbAcod8-34" edge="1">
          <mxGeometry x="-0.0024" relative="1" as="geometry">
            <mxPoint x="369.5" y="1646" as="sourcePoint" />
            <Array as="points" />
            <mxPoint x="760.5" y="1646" as="targetPoint" />
            <mxPoint as="offset" />
          </mxGeometry>
        </mxCell>
        <mxCell id="GiLnQwnksvuaZxbAcod8-21" value="&amp;lt;&amp;lt;data: str&amp;gt;&amp;gt;" style="html=1;verticalAlign=bottom;endArrow=open;dashed=1;endSize=8;edgeStyle=elbowEdgeStyle;elbow=vertical;curved=0;rounded=0;" parent="1" source="GiLnQwnksvuaZxbAcod8-34" edge="1">
          <mxGeometry relative="1" as="geometry">
            <mxPoint x="370.5" y="1667" as="targetPoint" />
            <Array as="points">
              <mxPoint x="473.5" y="1667" />
            </Array>
            <mxPoint x="527.5" y="1667" as="sourcePoint" />
          </mxGeometry>
        </mxCell>
        <mxCell id="GiLnQwnksvuaZxbAcod8-22" value="send(&quot;alertas@ciudad&quot;, data)" style="html=1;verticalAlign=bottom;endArrow=block;edgeStyle=elbowEdgeStyle;elbow=vertical;curved=0;rounded=0;" parent="1" target="GiLnQwnksvuaZxbAcod8-30" edge="1">
          <mxGeometry relative="1" as="geometry">
            <mxPoint x="369.5" y="1696" as="sourcePoint" />
            <Array as="points">
              <mxPoint x="576.5" y="1696" />
            </Array>
            <mxPoint x="880.5" y="1696" as="targetPoint" />
          </mxGeometry>
        </mxCell>
        <mxCell id="GiLnQwnksvuaZxbAcod8-23" value="&amp;lt;&amp;lt;null&amp;gt;&amp;gt;" style="html=1;verticalAlign=bottom;endArrow=open;dashed=1;endSize=8;edgeStyle=elbowEdgeStyle;elbow=vertical;curved=0;rounded=0;" parent="1" source="GiLnQwnksvuaZxbAcod8-30" edge="1">
          <mxGeometry relative="1" as="geometry">
            <mxPoint x="370.5" y="1715" as="targetPoint" />
            <Array as="points">
              <mxPoint x="689.5" y="1715" />
            </Array>
            <mxPoint x="670.5" y="1713" as="sourcePoint" />
          </mxGeometry>
        </mxCell>
        <mxCell id="GiLnQwnksvuaZxbAcod8-24" value="print(data)" style="html=1;verticalAlign=bottom;endArrow=block;edgeStyle=elbowEdgeStyle;elbow=vertical;curved=0;rounded=0;" parent="1" target="GiLnQwnksvuaZxbAcod8-9" edge="1">
          <mxGeometry relative="1" as="geometry">
            <mxPoint x="369.5" y="1767.1012903225806" as="sourcePoint" />
            <Array as="points">
              <mxPoint x="365.5" y="1767" />
            </Array>
            <mxPoint x="995.5" y="1767" as="targetPoint" />
          </mxGeometry>
        </mxCell>
        <mxCell id="GiLnQwnksvuaZxbAcod8-25" value="&amp;lt;&amp;lt;null&amp;gt;&amp;gt;" style="html=1;verticalAlign=bottom;endArrow=open;dashed=1;endSize=8;edgeStyle=elbowEdgeStyle;elbow=vertical;curved=0;rounded=0;" parent="1" source="mJHFNkixjHtdztOzqsIT-5" target="IbUuzjpu_abQETOAh3Pg-3" edge="1">
          <mxGeometry relative="1" as="geometry">
            <mxPoint x="610" y="1892" as="targetPoint" />
            <Array as="points">
              <mxPoint x="848.5" y="1892" />
            </Array>
            <mxPoint x="1100" y="1892" as="sourcePoint" />
          </mxGeometry>
        </mxCell>
        <mxCell id="GiLnQwnksvuaZxbAcod8-26" value="print(data)" style="html=1;verticalAlign=bottom;endArrow=block;edgeStyle=elbowEdgeStyle;elbow=vertical;curved=0;rounded=0;" parent="1" target="GiLnQwnksvuaZxbAcod8-18" edge="1">
          <mxGeometry relative="1" as="geometry">
            <mxPoint x="369.5" y="1546.1012903225806" as="sourcePoint" />
            <Array as="points" />
            <mxPoint x="995.5" y="1546" as="targetPoint" />
          </mxGeometry>
        </mxCell>
        <mxCell id="GiLnQwnksvuaZxbAcod8-27" value="LOOP" style="shape=umlFrame;whiteSpace=wrap;html=1;pointerEvents=0;" parent="1" vertex="1">
          <mxGeometry x="349.5" y="1726" width="680.5" height="90" as="geometry" />
        </mxCell>
        <mxCell id="GiLnQwnksvuaZxbAcod8-28" value="[repetir 3 veces]" style="text;html=1;align=center;verticalAlign=middle;resizable=0;points=[];autosize=1;strokeColor=none;fillColor=none;" parent="1" vertex="1">
          <mxGeometry x="409.5" y="1726" width="110" height="30" as="geometry" />
        </mxCell>
        <mxCell id="GiLnQwnksvuaZxbAcod8-29" value="ApiEmail:ApiEmail" style="shape=umlLifeline;perimeter=lifelinePerimeter;whiteSpace=wrap;html=1;container=0;dropTarget=0;collapsible=0;recursiveResize=0;outlineConnect=0;portConstraint=eastwest;newEdgeStyle={&quot;edgeStyle&quot;:&quot;elbowEdgeStyle&quot;,&quot;elbow&quot;:&quot;vertical&quot;,&quot;curved&quot;:0,&quot;rounded&quot;:0};" parent="1" vertex="1">
          <mxGeometry x="840.5" y="1242" width="100" height="718" as="geometry" />
        </mxCell>
        <mxCell id="GiLnQwnksvuaZxbAcod8-30" value="" style="html=1;points=[];perimeter=orthogonalPerimeter;outlineConnect=0;targetShapes=umlLifeline;portConstraint=eastwest;newEdgeStyle={&quot;edgeStyle&quot;:&quot;elbowEdgeStyle&quot;,&quot;elbow&quot;:&quot;vertical&quot;,&quot;curved&quot;:0,&quot;rounded&quot;:0};" parent="GiLnQwnksvuaZxbAcod8-29" vertex="1">
          <mxGeometry x="45" y="454" width="10" height="20" as="geometry" />
        </mxCell>
        <mxCell id="GiLnQwnksvuaZxbAcod8-31" value="" style="html=1;points=[];perimeter=orthogonalPerimeter;outlineConnect=0;targetShapes=umlLifeline;portConstraint=eastwest;newEdgeStyle={&quot;edgeStyle&quot;:&quot;elbowEdgeStyle&quot;,&quot;elbow&quot;:&quot;vertical&quot;,&quot;curved&quot;:0,&quot;rounded&quot;:0};" parent="GiLnQwnksvuaZxbAcod8-29" vertex="1">
          <mxGeometry x="45" y="254" width="10" height="20" as="geometry" />
        </mxCell>
        <mxCell id="GiLnQwnksvuaZxbAcod8-32" value="ApiDB:ApiDB" style="shape=umlLifeline;perimeter=lifelinePerimeter;whiteSpace=wrap;html=1;container=0;dropTarget=0;collapsible=0;recursiveResize=0;outlineConnect=0;portConstraint=eastwest;newEdgeStyle={&quot;edgeStyle&quot;:&quot;elbowEdgeStyle&quot;,&quot;elbow&quot;:&quot;vertical&quot;,&quot;curved&quot;:0,&quot;rounded&quot;:0};" parent="1" vertex="1">
          <mxGeometry x="720.5" y="1242" width="100" height="718" as="geometry" />
        </mxCell>
        <mxCell id="GiLnQwnksvuaZxbAcod8-33" value="" style="html=1;points=[];perimeter=orthogonalPerimeter;outlineConnect=0;targetShapes=umlLifeline;portConstraint=eastwest;newEdgeStyle={&quot;edgeStyle&quot;:&quot;elbowEdgeStyle&quot;,&quot;elbow&quot;:&quot;vertical&quot;,&quot;curved&quot;:0,&quot;rounded&quot;:0};" parent="GiLnQwnksvuaZxbAcod8-32" vertex="1">
          <mxGeometry x="45" y="191" width="10" height="20" as="geometry" />
        </mxCell>
        <mxCell id="GiLnQwnksvuaZxbAcod8-34" value="" style="html=1;points=[];perimeter=orthogonalPerimeter;outlineConnect=0;targetShapes=umlLifeline;portConstraint=eastwest;newEdgeStyle={&quot;edgeStyle&quot;:&quot;elbowEdgeStyle&quot;,&quot;elbow&quot;:&quot;vertical&quot;,&quot;curved&quot;:0,&quot;rounded&quot;:0};" parent="GiLnQwnksvuaZxbAcod8-32" vertex="1">
          <mxGeometry x="45" y="403" width="10" height="22" as="geometry" />
        </mxCell>
        <mxCell id="GiLnQwnksvuaZxbAcod8-37" value="data es un objeto&amp;nbsp;&lt;br&gt;{ date: date,&lt;br&gt;time: time,&lt;br&gt;idCam: int,&lt;br&gt;patente: str,&lt;br&gt;velocidad: int}" style="shape=note;size=20;whiteSpace=wrap;html=1;" parent="1" vertex="1">
          <mxGeometry x="1160" y="1310" width="230" height="100" as="geometry" />
        </mxCell>
        <mxCell id="GiLnQwnksvuaZxbAcod8-40" value="DetecciÃ³n:DetecciÃ³n" style="shape=umlLifeline;perimeter=lifelinePerimeter;whiteSpace=wrap;html=1;container=0;dropTarget=0;collapsible=0;recursiveResize=0;outlineConnect=0;portConstraint=eastwest;newEdgeStyle={&quot;edgeStyle&quot;:&quot;elbowEdgeStyle&quot;,&quot;elbow&quot;:&quot;vertical&quot;,&quot;curved&quot;:0,&quot;rounded&quot;:0};" parent="1" vertex="1">
          <mxGeometry x="610" y="1311" width="120" height="649" as="geometry" />
        </mxCell>
        <mxCell id="IbUuzjpu_abQETOAh3Pg-3" value="" style="html=1;points=[];perimeter=orthogonalPerimeter;outlineConnect=0;targetShapes=umlLifeline;portConstraint=eastwest;newEdgeStyle={&quot;edgeStyle&quot;:&quot;elbowEdgeStyle&quot;,&quot;elbow&quot;:&quot;vertical&quot;,&quot;curved&quot;:0,&quot;rounded&quot;:0};" vertex="1" parent="GiLnQwnksvuaZxbAcod8-40">
          <mxGeometry x="55" y="551" width="10" height="39" as="geometry" />
        </mxCell>
        <mxCell id="GiLnQwnksvuaZxbAcod8-43" value="agrega(DetecciÃ³n)" style="html=1;verticalAlign=bottom;endArrow=block;edgeStyle=elbowEdgeStyle;elbow=vertical;curved=0;rounded=0;" parent="1" edge="1">
          <mxGeometry relative="1" as="geometry">
            <mxPoint x="370.25" y="1362" as="sourcePoint" />
            <Array as="points">
              <mxPoint x="460.25" y="1362" />
            </Array>
            <mxPoint x="580" y="1362" as="targetPoint" />
          </mxGeometry>
        </mxCell>
        <mxCell id="mJHFNkixjHtdztOzqsIT-1" value="&amp;lt;&amp;lt;multiobjeto&amp;gt;&amp;gt;&lt;br&gt;Detecciones" style="shape=umlLifeline;perimeter=lifelinePerimeter;whiteSpace=wrap;html=1;container=0;dropTarget=0;collapsible=0;recursiveResize=0;outlineConnect=0;portConstraint=eastwest;newEdgeStyle={&quot;edgeStyle&quot;:&quot;elbowEdgeStyle&quot;,&quot;elbow&quot;:&quot;vertical&quot;,&quot;curved&quot;:0,&quot;rounded&quot;:0};" parent="1" vertex="1">
          <mxGeometry x="1080" y="1242" width="110" height="718" as="geometry" />
        </mxCell>
        <mxCell id="mJHFNkixjHtdztOzqsIT-5" value="" style="html=1;points=[];perimeter=orthogonalPerimeter;outlineConnect=0;targetShapes=umlLifeline;portConstraint=eastwest;newEdgeStyle={&quot;edgeStyle&quot;:&quot;elbowEdgeStyle&quot;,&quot;elbow&quot;:&quot;vertical&quot;,&quot;curved&quot;:0,&quot;rounded&quot;:0};" parent="mJHFNkixjHtdztOzqsIT-1" vertex="1">
          <mxGeometry x="50" y="630" width="10" height="20" as="geometry" />
        </mxCell>
        <mxCell id="mJHFNkixjHtdztOzqsIT-4" value="add(DetecciÃ³n:DetecciÃ³n)" style="html=1;verticalAlign=bottom;endArrow=block;edgeStyle=elbowEdgeStyle;elbow=vertical;curved=0;rounded=0;" parent="1" target="mJHFNkixjHtdztOzqsIT-5" edge="1">
          <mxGeometry relative="1" as="geometry">
            <mxPoint x="675" y="1872.1012903225806" as="sourcePoint" />
            <Array as="points">
              <mxPoint x="671" y="1872" />
            </Array>
            <mxPoint x="1140" y="1872" as="targetPoint" />
          </mxGeometry>
        </mxCell>
        <mxCell id="p28sZxBvkW5bqyNGPcI4-3" value="&amp;lt;&amp;lt;null&amp;gt;&amp;gt;" style="html=1;verticalAlign=bottom;endArrow=open;dashed=1;endSize=8;edgeStyle=elbowEdgeStyle;elbow=vertical;curved=0;rounded=0;" parent="1" source="GiLnQwnksvuaZxbAcod8-9" target="GiLnQwnksvuaZxbAcod8-3" edge="1">
          <mxGeometry relative="1" as="geometry">
            <mxPoint x="470.5" y="1790" as="targetPoint" />
            <Array as="points">
              <mxPoint x="699" y="1790" />
            </Array>
            <mxPoint x="980.5" y="1790" as="sourcePoint" />
          </mxGeometry>
        </mxCell>
        <mxCell id="IbUuzjpu_abQETOAh3Pg-6" value="create(patente, velocidad)" style="html=1;verticalAlign=bottom;endArrow=block;edgeStyle=elbowEdgeStyle;elbow=vertical;curved=0;rounded=0;" edge="1" parent="1" target="IbUuzjpu_abQETOAh3Pg-3">
          <mxGeometry relative="1" as="geometry">
            <mxPoint x="369.5" y="1862" as="sourcePoint" />
            <Array as="points">
              <mxPoint x="459.5" y="1862" />
            </Array>
            <mxPoint x="615" y="1862" as="targetPoint" />
          </mxGeometry>
        </mxCell>
        <mxCell id="IbUuzjpu_abQETOAh3Pg-7" value="&amp;lt;&amp;lt;null&amp;gt;&amp;gt;" style="html=1;verticalAlign=bottom;endArrow=open;dashed=1;endSize=8;edgeStyle=elbowEdgeStyle;elbow=vertical;curved=0;rounded=0;" edge="1" parent="1">
          <mxGeometry relative="1" as="geometry">
            <mxPoint x="369.5" y="1901" as="targetPoint" />
            <Array as="points">
              <mxPoint x="603.5" y="1901" />
            </Array>
            <mxPoint x="670" y="1901" as="sourcePoint" />
          </mxGeometry>
        </mxCell>
      </root>
    </mxGraphModel>
  </diagram>
</mxfile>
